<svg xmlns="http://www.w3.org/2000/svg" xmlns:xlink="http://www.w3.org/1999/xlink" width="155" zoomAndPan="magnify" viewBox="0 0 116.25 115.499996" height="154" preserveAspectRatio="xMidYMid meet" version="1.0"><defs><clipPath id="1b1aa93c4b"><path d="M 0 0.121094 L 18.835938 0.121094 L 18.835938 114.511719 L 0 114.511719 Z M 0 0.121094 " clip-rule="nonzero"/></clipPath><clipPath id="f534209e60"><path d="M 0 0.121094 L 114.886719 0.121094 L 114.886719 18.953125 L 0 18.953125 Z M 0 0.121094 " clip-rule="nonzero"/></clipPath><clipPath id="62390ec00b"><path d="M 25.695312 25.820312 L 44.53125 25.820312 L 44.53125 114.511719 L 25.695312 114.511719 Z M 25.695312 25.820312 " clip-rule="nonzero"/></clipPath><clipPath id="762faf258d"><path d="M 25.683594 25.816406 L 114.886719 25.816406 L 114.886719 44.652344 L 25.683594 44.652344 Z M 25.683594 25.816406 " clip-rule="nonzero"/></clipPath><clipPath id="d099a65eac"><path d="M 51.394531 51.515625 L 70.230469 51.515625 L 70.230469 114.511719 L 51.394531 114.511719 Z M 51.394531 51.515625 " clip-rule="nonzero"/></clipPath><clipPath id="2d9a5c501b"><path d="M 51.378906 51.515625 L 114.886719 51.515625 L 114.886719 70.347656 L 51.378906 70.347656 Z M 51.378906 51.515625 " clip-rule="nonzero"/></clipPath><clipPath id="7d8ff63a81"><path d="M 77.089844 77.214844 L 95.925781 77.214844 L 95.925781 114.511719 L 77.089844 114.511719 Z M 77.089844 77.214844 " clip-rule="nonzero"/></clipPath><clipPath id="28a015664e"><path d="M 77.078125 77.210938 L 114.886719 77.210938 L 114.886719 96.046875 L 77.078125 96.046875 Z M 77.078125 77.210938 " clip-rule="nonzero"/></clipPath></defs><g clip-path="url(#1b1aa93c4b)"><path fill="#89f95e" d="M 0 0.121094 L 18.835938 0.121094 L 18.835938 114.527344 L 0 114.527344 Z M 0 0.121094 " fill-opacity="1" fill-rule="nonzero"/></g><g clip-path="url(#f534209e60)"><path fill="#89f95e" d="M 114.886719 0.121094 L 114.886719 18.953125 L -0.0351562 18.953125 L -0.0351562 0.121094 Z M 114.886719 0.121094 " fill-opacity="1" fill-rule="nonzero"/></g><g clip-path="url(#62390ec00b)"><path fill="#89f95e" d="M 25.695312 25.820312 L 44.53125 25.820312 L 44.53125 114.546875 L 25.695312 114.546875 Z M 25.695312 25.820312 " fill-opacity="1" fill-rule="nonzero"/></g><g clip-path="url(#762faf258d)"><path fill="#89f95e" d="M 114.886719 25.816406 L 114.886719 44.652344 L 25.714844 44.652344 L 25.714844 25.816406 Z M 114.886719 25.816406 " fill-opacity="1" fill-rule="nonzero"/></g><g clip-path="url(#d099a65eac)"><path fill="#89f95e" d="M 51.394531 51.515625 L 70.230469 51.515625 L 70.230469 114.492188 L 51.394531 114.492188 Z M 51.394531 51.515625 " fill-opacity="1" fill-rule="nonzero"/></g><g clip-path="url(#2d9a5c501b)"><path fill="#89f95e" d="M 114.886719 51.515625 L 114.886719 70.347656 L 51.394531 70.347656 L 51.394531 51.515625 Z M 114.886719 51.515625 " fill-opacity="1" fill-rule="nonzero"/></g><g clip-path="url(#7d8ff63a81)"><path fill="#89f95e" d="M 77.089844 77.214844 L 95.925781 77.214844 L 95.925781 114.515625 L 77.089844 114.515625 Z M 77.089844 77.214844 " fill-opacity="1" fill-rule="nonzero"/></g><g clip-path="url(#28a015664e)"><path fill="#89f95e" d="M 114.886719 77.210938 L 114.886719 96.046875 L 77.070312 96.046875 L 77.070312 77.210938 Z M 114.886719 77.210938 " fill-opacity="1" fill-rule="nonzero"/></g></svg>