<svg xmlns="http://www.w3.org/2000/svg" xmlns:xlink="http://www.w3.org/1999/xlink" width="285" zoomAndPan="magnify" viewBox="0 0 213.75 84.749999" height="113" preserveAspectRatio="xMidYMid meet" version="1.0"><defs><g/><clipPath id="027f65a435"><path d="M 0.191406 22.085938 L 6.773438 22.085938 L 6.773438 62.0625 L 0.191406 62.0625 Z M 0.191406 22.085938 " clip-rule="nonzero"/></clipPath><clipPath id="9d9a450098"><path d="M 0.191406 22.082031 L 40.34375 22.082031 L 40.34375 28.667969 L 0.191406 28.667969 Z M 0.191406 22.082031 " clip-rule="nonzero"/></clipPath><clipPath id="9a0c018458"><path d="M 9.171875 31.066406 L 15.753906 31.066406 L 15.753906 62.0625 L 9.171875 62.0625 Z M 9.171875 31.066406 " clip-rule="nonzero"/></clipPath><clipPath id="4bfde91549"><path d="M 9.164062 31.066406 L 40.34375 31.066406 L 40.34375 37.648438 L 9.164062 37.648438 Z M 9.164062 31.066406 " clip-rule="nonzero"/></clipPath><clipPath id="bccb9e9f01"><path d="M 18.152344 40.046875 L 24.734375 40.046875 L 24.734375 62.0625 L 18.152344 62.0625 Z M 18.152344 40.046875 " clip-rule="nonzero"/></clipPath><clipPath id="eb7b62d29a"><path d="M 18.148438 40.046875 L 40.34375 40.046875 L 40.34375 46.628906 L 18.148438 46.628906 Z M 18.148438 40.046875 " clip-rule="nonzero"/></clipPath><clipPath id="679b0d57d3"><path d="M 27.132812 49.027344 L 33.714844 49.027344 L 33.714844 62.0625 L 27.132812 62.0625 Z M 27.132812 49.027344 " clip-rule="nonzero"/></clipPath><clipPath id="21c5ed91cb"><path d="M 27.128906 49.027344 L 40.34375 49.027344 L 40.34375 55.609375 L 27.128906 55.609375 Z M 27.128906 49.027344 " clip-rule="nonzero"/></clipPath></defs><g fill="#ffffff" fill-opacity="1"><g transform="translate(47.926649, 57.592784)"><g><path d="M 3.46875 0 L 3.46875 -32.84375 L 12.953125 -32.84375 L 12.953125 -21.0625 L 14.546875 -21.0625 C 15.671875 -21.0625 16.566406 -21.160156 17.234375 -21.359375 C 17.910156 -21.566406 18.457031 -21.925781 18.875 -22.4375 C 19.300781 -22.957031 19.671875 -23.691406 19.984375 -24.640625 L 22.9375 -32.84375 L 33.21875 -32.84375 L 28.34375 -20.59375 C 27.59375 -18.71875 26.71875 -17.171875 25.71875 -15.953125 L 34.34375 0 L 23.359375 0 L 17.078125 -12.4375 L 12.953125 -12.4375 L 12.953125 0 Z M 3.46875 0 "/></g></g></g><g fill="#ffffff" fill-opacity="1"><g transform="translate(81.047765, 57.592784)"><g><path d="M 0.234375 0 L 13 -32.84375 L 22.375 -32.84375 L 35.140625 0 L 25.0625 0 L 23.265625 -4.640625 L 12.0625 -4.640625 L 10.28125 0 Z M 14.03125 -11.59375 L 21.34375 -11.59375 L 17.6875 -21.765625 Z M 14.03125 -11.59375 "/></g></g></g><g fill="#ffffff" fill-opacity="1"><g transform="translate(114.075047, 57.592784)"><g><path d="M 3.46875 0 L 3.46875 -32.84375 L 12.953125 -32.84375 L 12.953125 0 Z M 3.46875 0 "/></g></g></g><g fill="#ffffff" fill-opacity="1"><g transform="translate(128.149029, 57.592784)"><g><path d="M 3.46875 0 L 3.46875 -32.84375 L 18.4375 -32.84375 C 21.09375 -32.84375 23.382812 -32.363281 25.3125 -31.40625 C 27.238281 -30.457031 28.722656 -29.109375 29.765625 -27.359375 C 30.816406 -25.609375 31.34375 -23.507812 31.34375 -21.0625 C 31.34375 -18.78125 30.875 -16.785156 29.9375 -15.078125 C 29 -13.378906 27.65625 -12.046875 25.90625 -11.078125 L 31.953125 0 L 21.203125 0 L 16.515625 -9.34375 L 12.953125 -9.34375 L 12.953125 0 Z M 12.765625 -16.890625 L 17.171875 -16.890625 C 18.671875 -16.890625 19.816406 -17.25 20.609375 -17.96875 C 21.410156 -18.6875 21.8125 -19.703125 21.8125 -21.015625 C 21.8125 -22.328125 21.410156 -23.335938 20.609375 -24.046875 C 19.816406 -24.753906 18.671875 -25.109375 17.171875 -25.109375 L 12.765625 -25.109375 Z M 12.765625 -16.890625 "/></g></g></g><g fill="#ffffff" fill-opacity="1"><g transform="translate(159.581233, 57.592784)"><g><path d="M 19.46875 0.703125 C 16.84375 0.703125 14.441406 0.289062 12.265625 -0.53125 C 10.097656 -1.363281 8.210938 -2.546875 6.609375 -4.078125 C 5.015625 -5.609375 3.78125 -7.421875 2.90625 -9.515625 C 2.03125 -11.617188 1.59375 -13.921875 1.59375 -16.421875 C 1.59375 -18.921875 2.03125 -21.21875 2.90625 -23.3125 C 3.78125 -25.414062 5.015625 -27.234375 6.609375 -28.765625 C 8.210938 -30.296875 10.097656 -31.472656 12.265625 -32.296875 C 14.441406 -33.128906 16.84375 -33.546875 19.46875 -33.546875 C 22.09375 -33.546875 24.492188 -33.128906 26.671875 -32.296875 C 28.847656 -31.472656 30.734375 -30.296875 32.328125 -28.765625 C 33.921875 -27.234375 35.15625 -25.414062 36.03125 -23.3125 C 36.90625 -21.21875 37.34375 -18.921875 37.34375 -16.421875 C 37.34375 -13.921875 36.90625 -11.617188 36.03125 -9.515625 C 35.15625 -7.421875 33.921875 -5.609375 32.328125 -4.078125 C 30.734375 -2.546875 28.847656 -1.363281 26.671875 -0.53125 C 24.492188 0.289062 22.09375 0.703125 19.46875 0.703125 Z M 11.21875 -16.421875 C 11.21875 -14.796875 11.566406 -13.347656 12.265625 -12.078125 C 12.972656 -10.816406 13.953125 -9.832031 15.203125 -9.125 C 16.453125 -8.425781 17.875 -8.078125 19.46875 -8.078125 C 21.09375 -8.078125 22.523438 -8.425781 23.765625 -9.125 C 25.003906 -9.832031 25.972656 -10.816406 26.671875 -12.078125 C 27.378906 -13.347656 27.734375 -14.796875 27.734375 -16.421875 C 27.734375 -18.078125 27.378906 -19.53125 26.671875 -20.78125 C 25.972656 -22.03125 25.003906 -23.007812 23.765625 -23.71875 C 22.523438 -24.425781 21.09375 -24.78125 19.46875 -24.78125 C 17.875 -24.78125 16.453125 -24.425781 15.203125 -23.71875 C 13.953125 -23.007812 12.972656 -22.03125 12.265625 -20.78125 C 11.566406 -19.53125 11.21875 -18.078125 11.21875 -16.421875 Z M 11.21875 -16.421875 "/></g></g></g><g clip-path="url(#027f65a435)"><path fill="#89f95e" d="M 0.191406 22.085938 L 6.773438 22.085938 L 6.773438 62.070312 L 0.191406 62.070312 Z M 0.191406 22.085938 " fill-opacity="1" fill-rule="nonzero"/></g><g clip-path="url(#9d9a450098)"><path fill="#89f95e" d="M 40.34375 22.082031 L 40.34375 28.667969 L 0.179688 28.667969 L 0.179688 22.082031 Z M 40.34375 22.082031 " fill-opacity="1" fill-rule="nonzero"/></g><g clip-path="url(#9a0c018458)"><path fill="#89f95e" d="M 9.171875 31.066406 L 15.753906 31.066406 L 15.753906 62.074219 L 9.171875 62.074219 Z M 9.171875 31.066406 " fill-opacity="1" fill-rule="nonzero"/></g><g clip-path="url(#4bfde91549)"><path fill="#89f95e" d="M 40.34375 31.066406 L 40.34375 37.648438 L 9.175781 37.648438 L 9.175781 31.066406 Z M 40.34375 31.066406 " fill-opacity="1" fill-rule="nonzero"/></g><g clip-path="url(#bccb9e9f01)"><path fill="#89f95e" d="M 18.152344 40.046875 L 24.734375 40.046875 L 24.734375 62.058594 L 18.152344 62.058594 Z M 18.152344 40.046875 " fill-opacity="1" fill-rule="nonzero"/></g><g clip-path="url(#eb7b62d29a)"><path fill="#89f95e" d="M 40.34375 40.046875 L 40.34375 46.628906 L 18.152344 46.628906 L 18.152344 40.046875 Z M 40.34375 40.046875 " fill-opacity="1" fill-rule="nonzero"/></g><g clip-path="url(#679b0d57d3)"><path fill="#89f95e" d="M 27.132812 49.027344 L 33.714844 49.027344 L 33.714844 62.066406 L 27.132812 62.066406 Z M 27.132812 49.027344 " fill-opacity="1" fill-rule="nonzero"/></g><g clip-path="url(#21c5ed91cb)"><path fill="#89f95e" d="M 40.34375 49.027344 L 40.34375 55.609375 L 27.125 55.609375 L 27.125 49.027344 Z M 40.34375 49.027344 " fill-opacity="1" fill-rule="nonzero"/></g></svg>