<svg xmlns="http://www.w3.org/2000/svg" xmlns:xlink="http://www.w3.org/1999/xlink" width="418" zoomAndPan="magnify" viewBox="0 0 313.5 124.499996" height="166" preserveAspectRatio="xMidYMid meet" version="1.0"><defs><g/><clipPath id="7557bed4dc"><path d="M 0.378906 32.421875 L 10.042969 32.421875 L 10.042969 91.117188 L 0.378906 91.117188 Z M 0.378906 32.421875 " clip-rule="nonzero"/></clipPath><clipPath id="bdebe5e2f3"><path d="M 0.378906 32.421875 L 59.328125 32.421875 L 59.328125 42.085938 L 0.378906 42.085938 Z M 0.378906 32.421875 " clip-rule="nonzero"/></clipPath><clipPath id="1b9cc4f8fd"><path d="M 13.5625 45.609375 L 23.226562 45.609375 L 23.226562 91.117188 L 13.5625 91.117188 Z M 13.5625 45.609375 " clip-rule="nonzero"/></clipPath><clipPath id="be293bd566"><path d="M 13.554688 45.605469 L 59.328125 45.605469 L 59.328125 55.269531 L 13.554688 55.269531 Z M 13.554688 45.605469 " clip-rule="nonzero"/></clipPath><clipPath id="537330934b"><path d="M 26.75 58.792969 L 36.414062 58.792969 L 36.414062 91.117188 L 26.75 91.117188 Z M 26.75 58.792969 " clip-rule="nonzero"/></clipPath><clipPath id="9284bf97a6"><path d="M 26.742188 58.792969 L 59.328125 58.792969 L 59.328125 68.457031 L 26.742188 68.457031 Z M 26.742188 58.792969 " clip-rule="nonzero"/></clipPath><clipPath id="7a9e3f4345"><path d="M 39.933594 71.980469 L 49.597656 71.980469 L 49.597656 91.117188 L 39.933594 91.117188 Z M 39.933594 71.980469 " clip-rule="nonzero"/></clipPath><clipPath id="d822bb2f33"><path d="M 39.925781 71.976562 L 59.328125 71.976562 L 59.328125 81.640625 L 39.925781 81.640625 Z M 39.925781 71.976562 " clip-rule="nonzero"/></clipPath></defs><g fill="#121212" fill-opacity="1"><g transform="translate(70.461752, 84.553347)"><g><path d="M 5.09375 0 L 5.09375 -48.21875 L 19.015625 -48.21875 L 19.015625 -30.921875 L 21.34375 -30.921875 C 23 -30.921875 24.320312 -31.066406 25.3125 -31.359375 C 26.300781 -31.660156 27.101562 -32.191406 27.71875 -32.953125 C 28.34375 -33.710938 28.882812 -34.78125 29.34375 -36.15625 L 33.6875 -48.21875 L 48.765625 -48.21875 L 41.59375 -30.234375 C 40.5 -27.484375 39.21875 -25.210938 37.75 -23.421875 L 50.421875 0 L 34.296875 0 L 25.078125 -18.25 L 19.015625 -18.25 L 19.015625 0 Z M 5.09375 0 "/></g></g></g><g fill="#121212" fill-opacity="1"><g transform="translate(119.087658, 84.553347)"><g><path d="M 0.34375 0 L 19.078125 -48.21875 L 32.859375 -48.21875 L 51.59375 0 L 36.78125 0 L 34.15625 -6.8125 L 17.703125 -6.8125 L 15.078125 0 Z M 20.59375 -17.015625 L 31.34375 -17.015625 L 25.96875 -31.953125 Z M 20.59375 -17.015625 "/></g></g></g><g fill="#121212" fill-opacity="1"><g transform="translate(167.575803, 84.553347)"><g><path d="M 5.09375 0 L 5.09375 -48.21875 L 19.015625 -48.21875 L 19.015625 0 Z M 5.09375 0 "/></g></g></g><g fill="#121212" fill-opacity="1"><g transform="translate(188.238154, 84.553347)"><g><path d="M 5.09375 0 L 5.09375 -48.21875 L 27.0625 -48.21875 C 30.96875 -48.21875 34.332031 -47.515625 37.15625 -46.109375 C 39.976562 -44.710938 42.160156 -42.726562 43.703125 -40.15625 C 45.242188 -37.582031 46.015625 -34.503906 46.015625 -30.921875 C 46.015625 -27.566406 45.320312 -24.640625 43.9375 -22.140625 C 42.5625 -19.640625 40.585938 -17.675781 38.015625 -16.25 L 46.90625 0 L 31.125 0 L 24.25 -13.703125 L 19.015625 -13.703125 L 19.015625 0 Z M 18.734375 -24.796875 L 25.203125 -24.796875 C 27.410156 -24.796875 29.097656 -25.320312 30.265625 -26.375 C 31.441406 -27.4375 32.03125 -28.929688 32.03125 -30.859375 C 32.03125 -32.785156 31.441406 -34.265625 30.265625 -35.296875 C 29.097656 -36.328125 27.410156 -36.84375 25.203125 -36.84375 L 18.734375 -36.84375 Z M 18.734375 -24.796875 "/></g></g></g><g fill="#121212" fill-opacity="1"><g transform="translate(234.384527, 84.553347)"><g><path d="M 28.578125 1.03125 C 24.722656 1.03125 21.195312 0.421875 18 -0.796875 C 14.8125 -2.015625 12.046875 -3.742188 9.703125 -5.984375 C 7.367188 -8.234375 5.554688 -10.894531 4.265625 -13.96875 C 2.984375 -17.050781 2.34375 -20.429688 2.34375 -24.109375 C 2.34375 -27.773438 2.984375 -31.144531 4.265625 -34.21875 C 5.554688 -37.300781 7.367188 -39.96875 9.703125 -42.21875 C 12.046875 -44.46875 14.8125 -46.203125 18 -47.421875 C 21.195312 -48.640625 24.722656 -49.25 28.578125 -49.25 C 32.441406 -49.25 35.96875 -48.640625 39.15625 -47.421875 C 42.34375 -46.203125 45.109375 -44.46875 47.453125 -42.21875 C 49.796875 -39.96875 51.609375 -37.300781 52.890625 -34.21875 C 54.179688 -31.144531 54.828125 -27.773438 54.828125 -24.109375 C 54.828125 -20.429688 54.179688 -17.050781 52.890625 -13.96875 C 51.609375 -10.894531 49.796875 -8.234375 47.453125 -5.984375 C 45.109375 -3.742188 42.34375 -2.015625 39.15625 -0.796875 C 35.96875 0.421875 32.441406 1.03125 28.578125 1.03125 Z M 16.46875 -24.109375 C 16.46875 -21.722656 16.984375 -19.597656 18.015625 -17.734375 C 19.046875 -15.878906 20.476562 -14.429688 22.3125 -13.390625 C 24.15625 -12.359375 26.242188 -11.84375 28.578125 -11.84375 C 30.972656 -11.84375 33.078125 -12.359375 34.890625 -13.390625 C 36.703125 -14.429688 38.125 -15.878906 39.15625 -17.734375 C 40.1875 -19.597656 40.703125 -21.722656 40.703125 -24.109375 C 40.703125 -26.535156 40.1875 -28.664062 39.15625 -30.5 C 38.125 -32.34375 36.703125 -33.78125 34.890625 -34.8125 C 33.078125 -35.84375 30.972656 -36.359375 28.578125 -36.359375 C 26.242188 -36.359375 24.15625 -35.84375 22.3125 -34.8125 C 20.476562 -33.78125 19.046875 -32.34375 18.015625 -30.5 C 16.984375 -28.664062 16.46875 -26.535156 16.46875 -24.109375 Z M 16.46875 -24.109375 "/></g></g></g><g clip-path="url(#7557bed4dc)"><path fill="#121212" d="M 0.378906 32.421875 L 10.042969 32.421875 L 10.042969 91.125 L 0.378906 91.125 Z M 0.378906 32.421875 " fill-opacity="1" fill-rule="nonzero"/></g><g clip-path="url(#bdebe5e2f3)"><path fill="#121212" d="M 59.328125 32.421875 L 59.328125 42.085938 L 0.359375 42.085938 L 0.359375 32.421875 Z M 59.328125 32.421875 " fill-opacity="1" fill-rule="nonzero"/></g><g clip-path="url(#1b9cc4f8fd)"><path fill="#121212" d="M 13.5625 45.609375 L 23.226562 45.609375 L 23.226562 91.136719 L 13.5625 91.136719 Z M 13.5625 45.609375 " fill-opacity="1" fill-rule="nonzero"/></g><g clip-path="url(#be293bd566)"><path fill="#121212" d="M 59.328125 45.605469 L 59.328125 55.269531 L 13.574219 55.269531 L 13.574219 45.605469 Z M 59.328125 45.605469 " fill-opacity="1" fill-rule="nonzero"/></g><g clip-path="url(#537330934b)"><path fill="#121212" d="M 26.75 58.792969 L 36.414062 58.792969 L 36.414062 91.109375 L 26.75 91.109375 Z M 26.75 58.792969 " fill-opacity="1" fill-rule="nonzero"/></g><g clip-path="url(#9284bf97a6)"><path fill="#121212" d="M 59.328125 58.792969 L 59.328125 68.457031 L 26.75 68.457031 L 26.75 58.792969 Z M 59.328125 58.792969 " fill-opacity="1" fill-rule="nonzero"/></g><g clip-path="url(#7a9e3f4345)"><path fill="#121212" d="M 39.933594 71.980469 L 49.597656 71.980469 L 49.597656 91.117188 L 39.933594 91.117188 Z M 39.933594 71.980469 " fill-opacity="1" fill-rule="nonzero"/></g><g clip-path="url(#d822bb2f33)"><path fill="#121212" d="M 59.328125 71.976562 L 59.328125 81.640625 L 39.921875 81.640625 L 39.921875 71.976562 Z M 59.328125 71.976562 " fill-opacity="1" fill-rule="nonzero"/></g></svg>