<svg xmlns="http://www.w3.org/2000/svg" xmlns:xlink="http://www.w3.org/1999/xlink" width="246" zoomAndPan="magnify" viewBox="0 0 184.5 183.749994" height="245" preserveAspectRatio="xMidYMid meet" version="1.0"><defs><clipPath id="5a5eac4334"><path d="M 0 0.125 L 30.097656 0.125 L 30.097656 182.910156 L 0 182.910156 Z M 0 0.125 " clip-rule="nonzero"/></clipPath><clipPath id="96f38cb6ad"><path d="M 0 0.125 L 183.582031 0.125 L 183.582031 30.21875 L 0 30.21875 Z M 0 0.125 " clip-rule="nonzero"/></clipPath><clipPath id="d9384ce538"><path d="M 41.0625 41.1875 L 71.160156 41.1875 L 71.160156 182.910156 L 41.0625 182.910156 Z M 41.0625 41.1875 " clip-rule="nonzero"/></clipPath><clipPath id="e8e97ad75f"><path d="M 41.039062 41.183594 L 183.582031 41.183594 L 183.582031 71.28125 L 41.039062 71.28125 Z M 41.039062 41.183594 " clip-rule="nonzero"/></clipPath><clipPath id="08672261bb"><path d="M 82.125 82.25 L 112.222656 82.25 L 112.222656 182.910156 L 82.125 182.910156 Z M 82.125 82.25 " clip-rule="nonzero"/></clipPath><clipPath id="029cd25078"><path d="M 82.101562 82.246094 L 183.582031 82.246094 L 183.582031 112.34375 L 82.101562 112.34375 Z M 82.101562 82.246094 " clip-rule="nonzero"/></clipPath><clipPath id="2f8f25da01"><path d="M 123.1875 123.3125 L 153.285156 123.3125 L 153.285156 182.910156 L 123.1875 182.910156 Z M 123.1875 123.3125 " clip-rule="nonzero"/></clipPath><clipPath id="c37d20350e"><path d="M 123.164062 123.308594 L 183.582031 123.308594 L 183.582031 153.40625 L 123.164062 153.40625 Z M 123.164062 123.308594 " clip-rule="nonzero"/></clipPath></defs><g clip-path="url(#5a5eac4334)"><path fill="#89f95e" d="M 0 0.125 L 30.097656 0.125 L 30.097656 182.9375 L 0 182.9375 Z M 0 0.125 " fill-opacity="1" fill-rule="nonzero"/></g><g clip-path="url(#96f38cb6ad)"><path fill="#89f95e" d="M 183.582031 0.121094 L 183.582031 30.21875 L -0.0546875 30.21875 L -0.0546875 0.121094 Z M 183.582031 0.121094 " fill-opacity="1" fill-rule="nonzero"/></g><g clip-path="url(#d9384ce538)"><path fill="#89f95e" d="M 41.0625 41.1875 L 71.160156 41.1875 L 71.160156 182.96875 L 41.0625 182.96875 Z M 41.0625 41.1875 " fill-opacity="1" fill-rule="nonzero"/></g><g clip-path="url(#e8e97ad75f)"><path fill="#89f95e" d="M 183.582031 41.183594 L 183.582031 71.28125 L 41.09375 71.28125 L 41.09375 41.183594 Z M 183.582031 41.183594 " fill-opacity="1" fill-rule="nonzero"/></g><g clip-path="url(#08672261bb)"><path fill="#89f95e" d="M 82.125 82.25 L 112.222656 82.25 L 112.222656 182.882812 L 82.125 182.882812 Z M 82.125 82.25 " fill-opacity="1" fill-rule="nonzero"/></g><g clip-path="url(#029cd25078)"><path fill="#89f95e" d="M 183.582031 82.246094 L 183.582031 112.34375 L 82.121094 112.34375 L 82.121094 82.246094 Z M 183.582031 82.246094 " fill-opacity="1" fill-rule="nonzero"/></g><g clip-path="url(#2f8f25da01)"><path fill="#89f95e" d="M 123.1875 123.3125 L 153.285156 123.3125 L 153.285156 182.917969 L 123.1875 182.917969 Z M 123.1875 123.3125 " fill-opacity="1" fill-rule="nonzero"/></g><g clip-path="url(#c37d20350e)"><path fill="#89f95e" d="M 183.582031 123.308594 L 183.582031 153.40625 L 123.152344 153.40625 L 123.152344 123.308594 Z M 183.582031 123.308594 " fill-opacity="1" fill-rule="nonzero"/></g></svg>